REM DIRINDEX 1\2,1\3\5,1\3\6,1\4\7,1\4\8
REM DIRNAME cjc139,folder01,folder02,folder03,folder04,folder05,folder06,folder07
TITLE ""
FILE "JE_22.mp3" MP3
  TRACK 01 AUDIO
    TITLE "0:"
    INDEX 01 00:00:00
  TRACK 02 AUDIO
    TITLE "7:cjc139_4066"
    INDEX 01 00:00:19
  TRACK 03 AUDIO
    TITLE "0:"
    INDEX 01 00:02:02
  TRACK 04 AUDIO
    TITLE "8:cjc139_4067"
    INDEX 01 00:04:60
  TRACK 05 AUDIO
    TITLE "0:"
    INDEX 01 00:06:30
  TRACK 06 AUDIO
    TITLE "7:cjc139_4068"
    INDEX 01 00:09:16
  TRACK 07 AUDIO
    TITLE "0:"
    INDEX 01 00:11:74
  TRACK 08 AUDIO
    TITLE "8:cjc139_4069"
    INDEX 01 00:14:58
  TRACK 09 AUDIO
    TITLE "0:"
    INDEX 01 00:17:08
  TRACK 10 AUDIO
    TITLE "7:cjc139_4070"
    INDEX 01 00:19:67
  TRACK 11 AUDIO
    TITLE "0:"
    INDEX 01 00:21:68
  TRACK 12 AUDIO
    TITLE "8:cjc139_4071"
    INDEX 01 00:24:49
  TRACK 13 AUDIO
    TITLE "0:"
    INDEX 01 00:26:52
  TRACK 14 AUDIO
    TITLE "7:cjc139_4072"
    INDEX 01 00:29:40
  TRACK 15 AUDIO
    TITLE "0:"
    INDEX 01 00:31:31
  TRACK 16 AUDIO
    TITLE "8:cjc139_4073"
    INDEX 01 00:34:18
  TRACK 17 AUDIO
    TITLE "0:"
    INDEX 01 00:36:05
  TRACK 18 AUDIO
    TITLE "7:cjc139_4074"
    INDEX 01 00:38:65
  TRACK 19 AUDIO
    TITLE "0:"
    INDEX 01 00:40:58
  TRACK 20 AUDIO
    TITLE "8:cjc139_4075"
    INDEX 01 00:43:44
  TRACK 21 AUDIO
    TITLE "0:"
    INDEX 01 00:45:47
  TRACK 22 AUDIO
    TITLE "7:cjc139_4076"
    INDEX 01 00:48:32
  TRACK 23 AUDIO
    TITLE "0:"
    INDEX 01 00:50:41
  TRACK 24 AUDIO
    TITLE "8:cjc139_4077"
    INDEX 01 00:53:25
  TRACK 25 AUDIO
    TITLE "0:"
    INDEX 01 00:55:26
  TRACK 26 AUDIO
    TITLE "7:cjc139_4078"
    INDEX 01 00:58:13
  TRACK 27 AUDIO
    TITLE "0:"
    INDEX 01 01:00:25
  TRACK 28 AUDIO
    TITLE "8:cjc139_4079"
    INDEX 01 01:03:10
  TRACK 29 AUDIO
    TITLE "0:"
    INDEX 01 01:05:36
  TRACK 30 AUDIO
    TITLE "7:cjc139_4080"
    INDEX 01 01:08:21
  TRACK 31 AUDIO
    TITLE "0:"
    INDEX 01 01:11:09
  TRACK 32 AUDIO
    TITLE "8:cjc139_4081"
    INDEX 01 01:13:69
  TRACK 33 AUDIO
    TITLE "0:"
    INDEX 01 01:17:55
  TRACK 34 AUDIO
    TITLE "7:cjc139_4082"
    INDEX 01 01:20:42
  TRACK 35 AUDIO
    TITLE "0:"
    INDEX 01 01:23:22
  TRACK 36 AUDIO
    TITLE "8:cjc139_4083"
    INDEX 01 01:26:07
  TRACK 37 AUDIO
    TITLE "0:"
    INDEX 01 01:29:33
  TRACK 38 AUDIO
    TITLE "7:cjc139_4084"
    INDEX 01 01:32:19
  TRACK 39 AUDIO
    TITLE "0:"
    INDEX 01 01:34:26
  TRACK 40 AUDIO
    TITLE "8:cjc139_4085"
    INDEX 01 01:37:09
  TRACK 41 AUDIO
    TITLE "0:"
    INDEX 01 01:39:23
  TRACK 42 AUDIO
    TITLE "7:cjc139_4086"
    INDEX 01 01:42:08
  TRACK 43 AUDIO
    TITLE "0:"
    INDEX 01 01:45:32
  TRACK 44 AUDIO
    TITLE "8:cjc139_4087"
    INDEX 01 01:48:16
  TRACK 45 AUDIO
    TITLE "0:"
    INDEX 01 01:51:11
  TRACK 46 AUDIO
    TITLE "7:cjc139_4088"
    INDEX 01 01:53:70
  TRACK 47 AUDIO
    TITLE "0:"
    INDEX 01 01:56:06
  TRACK 48 AUDIO
    TITLE "8:cjc139_4089"
    INDEX 01 01:58:68
  TRACK 49 AUDIO
    TITLE "0:"
    INDEX 01 02:00:67
  TRACK 50 AUDIO
    TITLE "7:cjc139_4090"
    INDEX 01 02:03:51
  TRACK 51 AUDIO
    TITLE "0:"
    INDEX 01 02:06:34
  TRACK 52 AUDIO
    TITLE "8:cjc139_4091"
    INDEX 01 02:09:15
  TRACK 53 AUDIO
    TITLE "0:"
    INDEX 01 02:11:68
  TRACK 54 AUDIO
    TITLE "7:cjc139_4092"
    INDEX 01 02:14:55
  TRACK 55 AUDIO
    TITLE "0:"
    INDEX 01 02:16:68
  TRACK 56 AUDIO
    TITLE "8:cjc139_4093"
    INDEX 01 02:19:54
  TRACK 57 AUDIO
    TITLE "0:"
    INDEX 01 02:22:19
  TRACK 58 AUDIO
    TITLE "7:cjc139_4094"
    INDEX 01 02:25:06
  TRACK 59 AUDIO
    TITLE "0:"
    INDEX 01 02:27:16
  TRACK 60 AUDIO
    TITLE "8:cjc139_4095"
    INDEX 01 02:29:74
  TRACK 61 AUDIO
    TITLE "0:"
    INDEX 01 02:31:67
  TRACK 62 AUDIO
    TITLE "7:cjc139_4096"
    INDEX 01 02:34:52
  TRACK 63 AUDIO
    TITLE "0:"
    INDEX 01 02:36:41
  TRACK 64 AUDIO
    TITLE "8:cjc139_4097"
    INDEX 01 02:39:24
  TRACK 65 AUDIO
    TITLE "0:"
    INDEX 01 02:41:17
  TRACK 66 AUDIO
    TITLE "7:cjc139_4098"
    INDEX 01 02:43:74
  TRACK 67 AUDIO
    TITLE "0:"
    INDEX 01 02:45:71
  TRACK 68 AUDIO
    TITLE "8:cjc139_4099"
    INDEX 01 02:48:56
  TRACK 69 AUDIO
    TITLE "0:"
    INDEX 01 02:50:37
  TRACK 70 AUDIO
    TITLE "7:cjc139_4100"
    INDEX 01 02:53:22
  TRACK 71 AUDIO
    TITLE "0:"
    INDEX 01 02:56:10
  TRACK 72 AUDIO
    TITLE "8:cjc139_4101"
    INDEX 01 02:58:70
  TRACK 73 AUDIO
    TITLE "0:"
    INDEX 01 03:02:13
  TRACK 74 AUDIO
    TITLE "7:cjc139_4102"
    INDEX 01 03:05:01
  TRACK 75 AUDIO
    TITLE "0:"
    INDEX 01 03:07:47
  TRACK 76 AUDIO
    TITLE "8:cjc139_4103"
    INDEX 01 03:10:32
  TRACK 77 AUDIO
    TITLE "0:"
    INDEX 01 03:12:54
  TRACK 78 AUDIO
    TITLE "7:cjc139_4104"
    INDEX 01 03:15:41
  TRACK 79 AUDIO
    TITLE "0:"
    INDEX 01 03:19:00
  TRACK 80 AUDIO
    TITLE "8:cjc139_4105"
    INDEX 01 03:21:59
  TRACK 81 AUDIO
    TITLE "0:"
    INDEX 01 03:25:28
  TRACK 82 AUDIO
    TITLE "7:cjc139_4106"
    INDEX 01 03:28:10
  TRACK 83 AUDIO
    TITLE "0:"
    INDEX 01 03:30:37
  TRACK 84 AUDIO
    TITLE "8:cjc139_4107"
    INDEX 01 03:33:23
  TRACK 85 AUDIO
    TITLE "0:"
    INDEX 01 03:35:24
  TRACK 86 AUDIO
    TITLE "7:cjc139_4108"
    INDEX 01 03:38:11
  TRACK 87 AUDIO
    TITLE "0:"
    INDEX 01 03:40:64
  TRACK 88 AUDIO
    TITLE "8:cjc139_4109"
    INDEX 01 03:43:49
  TRACK 89 AUDIO
    TITLE "0:"
    INDEX 01 03:45:64
  TRACK 90 AUDIO
    TITLE "7:cjc139_4110"
    INDEX 01 03:48:52
  TRACK 91 AUDIO
    TITLE "0:"
    INDEX 01 03:50:51
  TRACK 92 AUDIO
    TITLE "8:cjc139_4111"
    INDEX 01 03:53:38
  TRACK 93 AUDIO
    TITLE "0:"
    INDEX 01 03:55:50
  TRACK 94 AUDIO
    TITLE "7:cjc139_4112"
    INDEX 01 03:58:35
  TRACK 95 AUDIO
    TITLE "0:"
    INDEX 01 04:00:12
  TRACK 96 AUDIO
    TITLE "8:cjc139_4113"
    INDEX 01 04:02:70
  TRACK 97 AUDIO
    TITLE "0:"
    INDEX 01 04:04:41
  TRACK 98 AUDIO
    TITLE "7:cjc139_4114"
    INDEX 01 04:07:26
  TRACK 99 AUDIO
    TITLE "0:"
    INDEX 01 04:11:26
  TRACK 100 AUDIO
    TITLE "8:cjc139_4115"
    INDEX 01 04:14:12
  TRACK 101 AUDIO
    TITLE "0:"
    INDEX 01 04:17:50
  TRACK 102 AUDIO
    TITLE "7:cjc139_4116"
    INDEX 01 04:20:36
  TRACK 103 AUDIO
    TITLE "0:"
    INDEX 01 04:24:11
  TRACK 104 AUDIO
    TITLE "8:cjc139_4117"
    INDEX 01 04:26:74
  TRACK 105 AUDIO
    TITLE "0:"
    INDEX 01 04:30:31
  TRACK 106 AUDIO
    TITLE "7:cjc139_4118"
    INDEX 01 04:33:16
  TRACK 107 AUDIO
    TITLE "0:"
    INDEX 01 04:36:14
  TRACK 108 AUDIO
    TITLE "8:cjc139_4119"
    INDEX 01 04:39:03
  TRACK 109 AUDIO
    TITLE "0:"
    INDEX 01 04:42:50
  TRACK 110 AUDIO
    TITLE "8:cjc139_4120"
    INDEX 01 04:43:73
  TRACK 111 AUDIO
    TITLE "0:"
    INDEX 01 04:47:37
  TRACK 112 AUDIO
    TITLE "7:cjc139_4121"
    INDEX 01 04:50:22
  TRACK 113 AUDIO
    TITLE "0:"
    INDEX 01 04:53:61
  TRACK 114 AUDIO
    TITLE "8:cjc139_4122"
    INDEX 01 04:56:42
  TRACK 115 AUDIO
    TITLE "0:"
    INDEX 01 04:59:27
  TRACK 116 AUDIO
    TITLE "7:cjc139_4123"
    INDEX 01 05:02:11
  TRACK 117 AUDIO
    TITLE "0:"
    INDEX 01 05:04:61
  TRACK 118 AUDIO
    TITLE "8:cjc139_4124"
    INDEX 01 05:07:48
  TRACK 119 AUDIO
    TITLE "0:"
    INDEX 01 05:10:66
  TRACK 120 AUDIO
    TITLE "7:cjc139_4125"
    INDEX 01 05:13:50
  TRACK 121 AUDIO
    TITLE "0:"
    INDEX 01 05:16:64
  TRACK 122 AUDIO
    TITLE "8:cjc139_4126"
    INDEX 01 05:19:49
  TRACK 123 AUDIO
    TITLE "0:"
    INDEX 01 05:22:59
  TRACK 124 AUDIO
    TITLE "7:cjc139_4127"
    INDEX 01 05:25:42
  TRACK 125 AUDIO
    TITLE "0:"
    INDEX 01 05:29:59
  TRACK 126 AUDIO
    TITLE "8:cjc139_4128"
    INDEX 01 05:32:42
  TRACK 127 AUDIO
    TITLE "0:"
    INDEX 01 05:36:55
  TRACK 128 AUDIO
    TITLE "7:cjc139_4129"
    INDEX 01 05:39:40
  TRACK 129 AUDIO
    TITLE "0:"
    INDEX 01 05:42:11
  TRACK 130 AUDIO
    TITLE "8:cjc139_4130"
    INDEX 01 05:44:74
  TRACK 131 AUDIO
    TITLE "0:"
    INDEX 01 05:48:13
  TRACK 132 AUDIO
    TITLE "7:cjc139_4131"
    INDEX 01 05:50:73
  TRACK 133 AUDIO
    TITLE "0:"
    INDEX 01 05:54:16
  TRACK 134 AUDIO
    TITLE "8:cjc139_4132"
    INDEX 01 05:57:03
  TRACK 135 AUDIO
    TITLE "0:"
    INDEX 01 06:01:08
